# xmcd CD database file
#
# Track frame offsets:
#	150
#	17915
#	41708
#	69413
#	89755
#	138890
#
# Disc length: 2278 seconds
#
# Revision: 0
# Processed by: cddbd v1.4PL0 Copyright (c) Steve Scherf et al.
# Submitted via: CDex 1.50beta8
#
DISCID=4f08e406
DTITLE=15.60.75 - Jimmy Bell's still in town
DYEAR=1976
DGENRE=Blues
TTITLE0=Animal Speaks
TTITLE1=About The Eye Game
TTITLE2=Narrow Road
TTITLE3=Thief
TTITLE4=Jimmy Bell
TTITLE5=About Leaving Day
EXTD=YEAR: 1976
EXTT0=
EXTT1=
EXTT2=
EXTT3=
EXTT4=
EXTT5=
PLAYORDER=
